<svg width="254" height="41" viewBox="0 0 254 41" fill="none" xmlns="http://www.w3.org/2000/svg">
<path d="M73.7898 27.8193C76.1465 26.7268 78.1184 24.9625 79.4519 22.7533C80.7814 20.5485 81.4469 17.9236 81.4483 14.8788C81.4483 11.7936 80.7828 9.13849 79.4519 6.91343C78.1208 4.68851 76.1498 2.90533 73.7898 1.79095C71.3459 0.601025 68.4341 0.00606155 65.0544 0.00606155H48.7136V40.9939H57.449V29.5759H65.0605C65.1995 29.5759 65.3343 29.5759 65.4692 29.5759L72.717 41H82.1532L73.7203 27.8576L73.7898 27.8193ZM70.6082 20.1184C69.2787 21.3864 67.266 22.0211 64.5701 22.0224H57.451V7.7352H64.5701C67.2646 7.7352 69.2773 8.35911 70.6082 9.60692C71.9391 10.8547 72.6046 12.612 72.6046 14.8788C72.6046 17.1025 71.9391 18.849 70.6082 20.1184V20.1184Z" fill="#395381"/>
<path d="M97.031 23.8941H114.557V16.5183H97.031V7.61608H116.876V0.00404358H88.3488V40.9939H117.577V33.3819H97.031V23.8941Z" fill="#395381"/>
<path d="M155.269 6.90737C153.937 4.6829 151.966 2.89988 149.607 1.78489C147.155 0.594963 144.243 0 140.871 0H124.524V40.9879H133.268V29.6809H140.869C144.246 29.6809 147.158 29.0852 149.605 27.894C151.966 26.7801 153.937 24.9959 155.267 22.7695C156.596 20.5471 157.261 17.9128 157.261 14.8667C157.262 11.7896 156.598 9.13646 155.269 6.90737ZM146.425 20.082C145.094 21.3339 143.081 21.9591 140.385 21.9578H133.268V7.73519H140.385C143.082 7.73519 145.096 8.3591 146.425 9.60691C147.755 10.8547 148.423 12.612 148.43 14.8788C148.43 17.1025 147.762 18.839 146.425 20.0881V20.082Z" fill="#395381"/>
<path d="M173.441 0.00606155L156.618 40.9939H165.567L168.933 32.2108H186.436L189.787 40.9939H198.954L182.076 0.00606155H173.441ZM171.689 25.0087L177.699 9.3303L183.682 25.0167L171.689 25.0087Z" fill="#395381"/>
<path d="M211.619 0.00606155H202.883V40.9939H211.619V0.00606155Z" fill="#395381"/>
<path d="M245.569 27.8516L245.645 27.8193C248.001 26.7263 249.973 24.9621 251.307 22.7533C252.638 20.5485 253.302 17.9236 253.301 14.8788C253.301 11.7936 252.636 9.13849 251.307 6.91343C249.975 4.68897 248.004 2.90594 245.645 1.79095C243.193 0.601025 240.281 0.00606155 236.909 0.00606155H220.562V40.9939H229.298V29.5759H236.907C237.044 29.5759 237.181 29.5759 237.316 29.5759L244.564 41H254L245.569 27.8516ZM242.463 20.1184C241.134 21.3864 239.12 22.0211 236.423 22.0224H229.306V7.7352H236.423C239.12 7.7352 241.134 8.35911 242.463 9.60692C243.793 10.8547 244.457 12.612 244.457 14.8788C244.464 17.1025 243.799 18.849 242.463 20.1184V20.1184Z" fill="#395381"/>
<path d="M19.6816 11.4241V6.80844H34.78L40.5811 0.00606155H10.5437V11.4483C10.5437 11.4483 19.6816 11.3191 19.6816 11.4241Z" fill="#395381"/>
<path d="M33.4641 16.9645H6.67771L0 24.0274H33.4641V16.9645Z" fill="#395381"/>
<path d="M19.6815 27.7385L10.5396 36.8648V40.9939H41.3187V33.3819H19.6815V27.7385Z" fill="#395381"/>
</svg>
