<svg width="53" height="53" viewBox="0 0 53 53" fill="none" xmlns="http://www.w3.org/2000/svg">
<path d="M1.75522e-06 45.0881C-0.000398647 45.4301 0.0677099 45.7688 0.200434 46.0849C0.333158 46.401 0.527893 46.6882 0.773506 46.9302C1.01912 47.1722 1.31079 47.3641 1.63185 47.4951C1.9529 47.626 2.29704 47.6935 2.64459 47.6935H8.24454V50.6765C8.24495 51.2922 8.49369 51.8826 8.93614 52.318C9.37858 52.7534 9.97855 52.9982 10.6043 52.9985C11.229 52.997 11.8277 52.7516 12.2689 52.3163C12.7101 51.881 12.9579 51.2913 12.9579 50.6765V47.6935H18.8183V50.6765C18.8183 51.2928 19.0671 51.8838 19.5099 52.3195C19.9527 52.7553 20.5533 53 21.1796 53C21.8058 53 22.4064 52.7553 22.8492 52.3195C23.2921 51.8838 23.5408 51.2928 23.5408 50.6765V47.6935H29.4104V50.6765C29.4104 51.2924 29.659 51.883 30.1016 52.3184C30.5441 52.7539 31.1443 52.9985 31.7701 52.9985C32.3958 52.9982 32.9958 52.7534 33.4383 52.318C33.8807 51.8826 34.1294 51.2922 34.1298 50.6765V47.6935H39.9827V50.6765C39.9827 51.2928 40.2314 51.8838 40.6743 52.3195C41.1171 52.7553 41.7177 53 42.3439 53C42.9702 53 43.5708 52.7553 44.0136 52.3195C44.4564 51.8838 44.7052 51.2928 44.7052 50.6765V47.6935H50.0995C50.8008 47.6935 51.4735 47.4193 51.9695 46.9312C52.4654 46.4432 52.744 45.7813 52.744 45.0911V40.2402H1.75522e-06V45.0881Z" fill="#82C6ED"/>
<path d="M17.4472 19.0109H14.3792C13.9089 19.0109 13.5276 19.386 13.5276 19.8488V22.8679C13.5276 23.3307 13.9089 23.7059 14.3792 23.7059H17.4472C17.9176 23.7059 18.2988 23.3307 18.2988 22.8679V19.8488C18.2988 19.386 17.9176 19.0109 17.4472 19.0109Z" fill="#82C6ED"/>
<path d="M50.1864 5.79378H44.5986V2.32351C44.5986 1.70728 44.3498 1.11628 43.907 0.68054C43.4642 0.244798 42.8636 0 42.2373 0C41.6111 0 41.0105 0.244798 40.5677 0.68054C40.1249 1.11628 39.8761 1.70728 39.8761 2.32351V5.79378H34.0202V2.32351C34.0198 1.7078 33.7711 1.11741 33.3286 0.682039C32.8862 0.246664 32.2862 0.00189589 31.6605 0.00149879C31.0347 0.00149879 30.4345 0.246139 29.9919 0.6816C29.5494 1.11706 29.3008 1.70767 29.3008 2.32351V5.79378H23.4403V2.32351C23.4403 1.70728 23.1916 1.11628 22.7487 0.68054C22.3059 0.244798 21.7053 0 21.0791 0C20.4529 0 19.8523 0.244798 19.4094 0.68054C18.9666 1.11628 18.7179 1.70728 18.7179 2.32351V5.79378H12.8604V2.32351C12.8604 1.70767 12.6118 1.11706 12.1693 0.6816C11.7268 0.246139 11.1266 0.00149879 10.5007 0.00149879C9.87502 0.00189589 9.27505 0.246664 8.83261 0.682039C8.39016 1.11741 8.14142 1.7078 8.14102 2.32351V5.79378H3.07272C2.70271 5.79378 2.33633 5.86559 1.99456 6.00511C1.65279 6.14463 1.34235 6.34911 1.08099 6.60684C0.819636 6.86458 0.612508 7.17051 0.471466 7.50712C0.330424 7.84373 0.258238 8.2044 0.25904 8.5685V33.9127H53V8.5685C53.0008 8.2044 52.9287 7.84373 52.7876 7.50712C52.6466 7.17051 52.4394 6.86458 52.1781 6.60684C51.9167 6.34911 51.6063 6.14463 51.2645 6.00511C50.9227 5.86559 50.5564 5.79378 50.1864 5.79378ZM24.263 26.6409C24.263 27.0262 24.1859 27.4076 24.036 27.7636C23.8862 28.1195 23.6666 28.4429 23.3898 28.7153C23.1129 28.9877 22.7843 29.2038 22.4226 29.3512C22.0609 29.4986 21.6732 29.5745 21.2817 29.5745H10.5464C9.75575 29.5745 8.99746 29.2654 8.43837 28.7153C7.87927 28.1651 7.56517 27.4189 7.56517 26.6409V16.0772C7.56517 15.299 7.87922 14.5527 8.43827 14.0023C8.99732 13.4519 9.75561 13.1425 10.5464 13.1421H21.2817C22.0725 13.1425 22.8308 13.4519 23.3899 14.0023C23.9489 14.5527 24.263 15.299 24.263 16.0772V26.6409ZM42.1551 29.8294H31.6788C30.8655 29.8116 30.0916 29.4813 29.5227 28.909C28.9539 28.3368 28.6354 27.5681 28.6354 26.7676C28.6354 25.9671 28.9539 25.1984 29.5227 24.6261C30.0916 24.0539 30.8655 23.7235 31.6788 23.7058H42.1551C42.5695 23.6968 42.9815 23.7693 43.3671 23.9191C43.7526 24.0689 44.1038 24.293 44.4002 24.5782C44.6965 24.8634 44.9319 25.204 45.0927 25.58C45.2534 25.9559 45.3362 26.3597 45.3362 26.7676C45.3362 27.1755 45.2534 27.5792 45.0927 27.9552C44.9319 28.3311 44.6965 28.6717 44.4002 28.9569C44.1038 29.2421 43.7526 29.4662 43.3671 29.616C42.9815 29.7659 42.5695 29.8384 42.1551 29.8294ZM45.2674 18.9119C45.2674 19.7241 44.9395 20.5031 44.3558 21.0774C43.7721 21.6517 42.9805 21.9744 42.1551 21.9744H31.6788C30.8536 21.974 30.0624 21.6512 29.4791 21.0769C28.8957 20.5026 28.568 19.7238 28.568 18.9119C28.568 18.5099 28.6485 18.1118 28.8048 17.7405C28.9612 17.3691 29.1903 17.0316 29.4792 16.7474C29.768 16.4631 30.1109 16.2377 30.4884 16.0838C30.8658 15.93 31.2703 15.8508 31.6788 15.8508H42.1551C42.9802 15.8508 43.7716 16.1733 44.3553 16.7473C44.9389 17.3213 45.267 18.0999 45.2674 18.9119Z" fill="#82C6ED"/>
</svg>
