<svg width="206" height="33" viewBox="0 0 206 33" fill="none" xmlns="http://www.w3.org/2000/svg">
<path d="M59.8453 22.3911C61.7567 21.5118 63.356 20.0917 64.4375 18.3137C65.5158 16.539 66.0555 14.4263 66.0566 11.9756C66.0566 9.49242 65.5169 7.35537 64.4375 5.56448C63.3579 3.77368 61.7594 2.33844 59.8453 1.4415C57.8633 0.483755 55.5018 0.00488281 52.7607 0.00488281H39.508V32.9951H46.5926V23.805H52.7657C52.8784 23.805 52.9878 23.805 53.0972 23.805L58.9753 33H66.6283L59.789 22.422L59.8453 22.3911ZM57.265 16.1929C56.1868 17.2134 54.5544 17.7243 52.368 17.7254H46.5942V6.2259H52.368C54.5533 6.2259 56.1856 6.72807 57.265 7.7324C58.3444 8.73673 58.8841 10.1511 58.8841 11.9756C58.8841 13.7654 58.3444 15.1712 57.265 16.1929Z" fill="#EAEEE9"/>
<path d="M78.6945 19.2318H92.9084V13.2952H78.6945V6.12994H94.7893V0.00317383H71.653V32.995H95.3577V26.8683H78.6945V19.2318Z" fill="#EAEEE9"/>
<path d="M125.927 5.55959C124.847 3.76917 123.248 2.33405 121.335 1.43662C119.346 0.478873 116.984 0 114.25 0H100.992V32.9902H108.083V23.8895H114.248C116.987 23.8895 119.349 23.4101 121.333 22.4512C123.248 21.5547 124.847 20.1187 125.925 18.3267C127.003 16.5379 127.542 14.4177 127.542 11.9659C127.544 9.48916 127.005 7.35374 125.927 5.55959ZM118.754 16.1636C117.675 17.1712 116.042 17.6744 113.856 17.6733H108.083V6.22589H113.856C116.043 6.22589 117.676 6.72806 118.754 7.73239C119.833 8.73673 120.374 10.1511 120.38 11.9756C120.38 13.7654 119.838 15.1631 118.754 16.1685V16.1636Z" fill="#EAEEE9"/>
<path d="M140.664 0.00488281L127.021 32.9951H134.279L137.009 25.9258H151.204L153.922 32.9951H161.356L147.668 0.00488281H140.664ZM139.244 20.1289L144.118 7.50976L148.97 20.1354L139.244 20.1289Z" fill="#EAEEE9"/>
<path d="M171.628 0.00488281H164.543V32.9951H171.628V0.00488281Z" fill="#EAEEE9"/>
<path d="M199.162 22.4171L199.224 22.3911C201.135 21.5114 202.734 20.0914 203.816 18.3137C204.895 16.539 205.434 14.4263 205.433 11.9756C205.433 9.49242 204.894 7.35537 203.816 5.56448C202.736 3.77405 201.137 2.33893 199.224 1.4415C197.235 0.483755 194.873 0.00488281 192.139 0.00488281H178.881V32.9951H185.966V23.805H192.137C192.248 23.805 192.359 23.805 192.469 23.805L198.347 33H206L199.162 22.4171ZM196.643 16.1929C195.565 17.2134 193.932 17.7243 191.745 17.7254H185.973V6.2259H191.745C193.932 6.2259 195.565 6.72807 196.643 7.7324C197.722 8.73673 198.261 10.1511 198.261 11.9756C198.266 13.7654 197.727 15.1712 196.643 16.1929Z" fill="#EAEEE9"/>
<path d="M15.9623 9.19502V5.47996H28.2074L32.9123 0.00488281H8.55121V9.21452C8.55121 9.21452 15.9623 9.11051 15.9623 9.19502Z" fill="#EAEEE9"/>
<path d="M27.1402 13.6543H5.41578L0 19.339H27.1402V13.6543Z" fill="#EAEEE9"/>
<path d="M15.9623 22.3262L8.54791 29.6718V32.9952H33.5105V26.8684H15.9623V22.3262Z" fill="#EAEEE9"/>
</svg>
