<svg width="37" height="34" viewBox="0 0 37 34" fill="none" xmlns="http://www.w3.org/2000/svg">
<path d="M18.1275 0C8.11691 0 0 7.48245 0 16.7106C0 25.9387 8.11691 33.4211 18.1275 33.4211C28.1381 33.4211 36.255 25.9387 36.255 16.7106C36.255 7.48245 28.1381 0 18.1275 0ZM19.6044 20.8434C17.8281 23.1486 14.2592 23.82 11.4753 22.8315C8.68339 21.8505 6.7007 19.1314 6.93943 16.3599C7.00012 12.9693 10.3869 9.99649 14.065 10.1121C15.8292 10.0375 17.4882 10.7425 18.8396 11.7384C18.261 12.3427 17.6662 12.9246 17.0269 13.4654C15.4043 12.4322 13.0939 12.1375 11.4713 13.3311C9.14872 14.812 9.04351 18.307 11.2771 19.8997C13.45 21.7163 17.557 20.8136 18.1599 18.031C16.8003 18.0123 15.4326 18.031 14.0731 17.99C14.069 17.2402 14.065 16.4942 14.069 15.7445C16.3431 15.737 18.6211 15.7333 20.8992 15.7519C21.0327 17.5162 20.7778 19.3887 19.6044 20.8434ZM29.4167 17.6244C28.7369 17.6319 28.0571 17.6356 27.3774 17.6393C27.3693 18.266 27.3652 18.8926 27.3652 19.5193H25.3299C25.3218 18.8926 25.3218 18.2697 25.3178 17.6431C24.638 17.6356 23.9582 17.6319 23.2784 17.6244V15.7557C23.9582 15.7482 24.638 15.7445 25.3178 15.7445C25.3218 15.1178 25.3299 14.4912 25.334 13.8645H27.3652L27.3774 15.7445C28.0571 15.7519 28.7369 15.7519 29.4167 15.7557V17.6244Z" fill="white"/>
</svg>
