<svg width="38" height="34" viewBox="0 0 38 34" fill="none" xmlns="http://www.w3.org/2000/svg">
<path d="M18.995 11.138C15.6189 11.138 12.8637 13.6421 12.8637 16.7106C12.8637 19.779 15.6189 22.2831 18.995 22.2831C22.3712 22.2831 25.1264 19.779 25.1264 16.7106C25.1264 13.6421 22.3712 11.138 18.995 11.138ZM37.3844 16.7106C37.3844 14.4029 37.4074 12.1162 37.2648 9.81279C37.1222 7.1373 36.4507 4.76279 34.298 2.80633C32.1408 0.845697 29.5328 0.23953 26.589 0.109935C24.05 -0.0196589 21.534 0.00124345 18.9996 0.00124345C16.4606 0.00124345 13.9446 -0.0196589 11.4102 0.109935C8.46647 0.23953 5.85388 0.849877 3.70125 2.80633C1.54402 4.76697 0.877073 7.1373 0.734484 9.81279C0.591895 12.1204 0.614894 14.4071 0.614894 16.7106C0.614894 19.014 0.591895 21.3049 0.734484 23.6083C0.877073 26.2838 1.54862 28.6583 3.70125 30.6148C5.85848 32.5754 8.46647 33.1816 11.4102 33.3112C13.9492 33.4408 16.4652 33.4199 18.9996 33.4199C21.5386 33.4199 24.0546 33.4408 26.589 33.3112C29.5328 33.1816 32.1454 32.5712 34.298 30.6148C36.4553 28.6541 37.1222 26.2838 37.2648 23.6083C37.412 21.3049 37.3844 19.0182 37.3844 16.7106ZM18.995 25.2847C13.7745 25.2847 9.56118 21.4554 9.56118 16.7106C9.56118 11.9657 13.7745 8.13643 18.995 8.13643C24.2156 8.13643 28.4289 11.9657 28.4289 16.7106C28.4289 21.4554 24.2156 25.2847 18.995 25.2847ZM28.8153 9.78771C27.5964 9.78771 26.612 8.89309 26.612 7.78527C26.612 6.67744 27.5964 5.78283 28.8153 5.78283C30.0342 5.78283 31.0185 6.67744 31.0185 7.78527C31.0189 8.04832 30.9621 8.30886 30.8515 8.55196C30.7409 8.79506 30.5786 9.01593 30.374 9.20194C30.1693 9.38795 29.9263 9.53544 29.6588 9.63596C29.3914 9.73647 29.1047 9.78804 28.8153 9.78771Z" fill="white"/>
</svg>
